<svg width="400" height="250" viewBox="0 0 400 250" fill="none" xmlns="http://www.w3.org/2000/svg">
  <rect width="400" height="250" fill="url(#g)"/>
  <rect x="50" y="30" width="300" height="190" rx="10" fill="#0a1628" opacity="0.85"/>
  <text x="200" y="60" text-anchor="middle" fill="#4fc3f7" font-family="monospace" font-size="11" font-weight="bold">DYNAMIC PRICING DASHBOARD</text>
  <rect x="65" y="70" width="120" height="20" rx="4" fill="#1a2744"/>
  <text x="72" y="84" fill="#4fc3f7" font-family="sans-serif" font-size="8">Upload Data</text>
  <rect x="195" y="70" width="120" height="20" rx="4" fill="#1a2744"/>
  <text x="202" y="84" fill="#888" font-family="sans-serif" font-size="8">Analytics</text>
  <rect x="65" y="100" width="270" height="30" rx="6" fill="#1a2744"/>
  <text x="200" y="118" text-anchor="middle" fill="#aaa" font-family="monospace" font-size="9">Revenue: $284,592  |  Orders: 12,847</text>
  <rect x="65" y="140" width="80" height="60" rx="6" fill="#1a2744"/>
  <rect x="65" y="140" width="80" height="4" rx="2" fill="#4fc3f7"/>
  <text x="105" y="158" text-anchor="middle" fill="#4fc3f7" font-family="sans-serif" font-size="10">$24.99</text>
  <text x="105" y="172" text-anchor="middle" fill="#888" font-family="sans-serif" font-size="7">Suggested</text>
  <rect x="155" y="140" width="80" height="60" rx="6" fill="#1a2744"/>
  <rect x="155" y="140" width="80" height="4" rx="2" fill="#ff6b6b"/>
  <text x="195" y="158" text-anchor="middle" fill="#ff6b6b" font-family="sans-serif" font-size="10">$19.99</text>
  <text x="195" y="172" text-anchor="middle" fill="#888" font-family="sans-serif" font-size="7">Competitor</text>
  <rect x="245" y="140" width="80" height="60" rx="6" fill="#1a2744"/>
  <rect x="245" y="140" width="80" height="4" rx="2" fill="#66bb6a"/>
  <text x="285" y="158" text-anchor="middle" fill="#66bb6a" font-family="sans-serif" font-size="10">$29.99</text>
  <text x="285" y="172" text-anchor="middle" fill="#888" font-family="sans-serif" font-size="7">Optimal</text>
  <defs>
    <linearGradient id="g" x1="0" y1="0" x2="1" y2="1">
      <stop offset="0%" stop-color="#0f0c29"/>
      <stop offset="100%" stop-color="#1a237e"/>
    </linearGradient>
  </defs>
</svg>
